<svg width="96" height="184" viewBox="0 0 96 184" fill="none" xmlns="http://www.w3.org/2000/svg">
<path d="M16.7272 150.019H3.15277C2.04346 150.019 1.22608 149.77 0.700616 149.272C0.233539 148.712 0 147.841 0 146.658V86.161C0 84.9784 0.233539 84.1382 0.700616 83.6402C1.22608 83.0801 2.04346 82.8 3.15277 82.8H42.2121C43.3214 82.8 44.1096 83.0801 44.5767 83.6402C45.1022 84.1382 45.3649 84.9784 45.3649 86.161V97.2708C45.3649 98.4534 45.1022 99.3247 44.5767 99.8849C44.1096 100.383 43.3214 100.632 42.2121 100.632H19.88V110.341H35.1184C36.2277 110.341 37.0159 110.621 37.483 111.181C38.0084 111.679 38.2711 112.52 38.2711 113.702V124.905C38.2711 126.088 38.0084 126.959 37.483 127.519C37.0159 128.017 36.2277 128.266 35.1184 128.266H19.88V146.658C19.88 147.841 19.6172 148.712 19.0918 149.272C18.6247 149.77 17.8365 150.019 16.7272 150.019Z" fill="#FDE74C"/>
<path d="M77.0389 29.0868L92.4262 29.0868C93.6836 29.0868 94.6102 29.3525 95.2058 29.884C95.7353 30.4819 96 31.4119 96 32.6741V97.2445C96 98.5067 95.6625 99.8595 95.1331 100.391C94.5374 100.989 93.3002 101.429 92.0308 101.429H48.599C47.3415 101.429 45.9996 100.533 45.4701 99.935C44.8745 99.4035 44.5767 98.5067 44.5767 97.2445V85.3867C44.5767 84.1245 44.8745 83.5704 45.4701 82.9725C46.6449 82.9725 48.8809 82.9725 49.811 82.9725L74.3586 82.9725V70.5395H56.1916C54.9342 70.5395 54.0407 71.1373 53.5113 70.5395C52.9156 70.008 52.6178 69.1112 52.6178 67.849V55.8915C52.6178 54.6293 52.9156 53.6993 53.5113 53.1015C54.0407 52.57 54.9342 52.3043 56.1916 52.3043H73.4651V32.6741C73.4651 31.4119 73.7629 30.4819 74.3586 29.884C74.888 29.3525 75.7815 29.0868 77.0389 29.0868Z" fill="#FDE74C"/>
<path d="M33.0671 184H64.1356C72.3547 184 78.4698 182.248 82.4807 178.743C86.4259 175.238 88.3985 169.841 88.3985 162.551V129.746C88.3985 122.456 86.4259 117.059 82.4807 113.554C78.4698 110.05 72.7493 110.4 64.5301 110.4L40.4293 110.4C39.18 110.4 37.9635 110.4 36.815 110.4C36.2232 110.961 35.9274 110.75 35.9274 112.082V124.805C35.9274 126.136 36.2232 127.118 36.815 127.749C37.3411 128.309 38.2287 128.59 39.478 128.59H59.9931C62.0314 128.59 63.5438 129.045 64.5301 129.957C65.5164 130.798 66.0095 132.094 66.0095 133.847V158.976C66.0095 160.728 65.6479 162.025 64.9246 162.866C64.1356 163.707 62.9849 164.128 61.4725 164.128H51.9054V147.726C51.9054 146.394 51.6424 145.448 51.1164 144.887C50.5246 144.256 49.6041 143.941 48.3548 143.941L33.0671 143.941C31.8178 143.941 30.9301 144.256 30.4041 144.887C29.8123 145.448 29.5164 146.394 29.5164 147.726V180.215C29.5164 181.547 29.8123 182.528 30.4041 183.159C30.9301 183.72 31.8178 184 33.0671 184Z" fill="#F27405"/>
<path d="M67.2874 7.26337e-06L34.7618 0C26.1571 -1.51684e-06 19.7552 1.63554 15.5561 4.90664C11.4259 8.17774 9.36079 13.2152 9.36079 20.0191L9.36078 50.6366C9.36078 57.4405 11.4259 62.4779 15.5561 65.749C19.7552 69.0201 26.1571 70.6557 34.7617 70.6557L60.131 70.9714C61.4389 70.9714 62.813 70.3613 63.3637 69.7725C63.9832 69.2491 64.293 68.3659 64.293 67.1229L64.293 56.0763C64.293 54.8332 63.8187 54.3239 63.3637 53.0108C62.813 52.4874 61.8837 51.716 60.5757 51.716L39.0985 51.716C36.9645 51.716 35.3813 51.2908 34.3487 50.4403C33.3162 49.6553 32.7999 48.4449 32.7999 46.8094L32.7999 23.3556C32.7999 21.7201 33.1785 20.5098 33.9357 19.7247C34.7617 18.9397 35.9664 18.5471 37.5497 18.5471L47.5655 18.5471V33.8559C47.5655 35.0989 47.8409 35.9821 48.3916 36.5054C49.0111 37.0942 49.9748 37.3886 51.2827 37.3886H67.2874C68.5953 37.3886 69.5246 37.0942 70.0753 36.5054C70.6948 35.9821 71.0046 35.0989 71.0046 33.8559V3.53279C71.0046 2.28977 70.6948 1.37387 70.0753 0.785067C69.5246 0.261692 68.5953 7.49393e-06 67.2874 7.26337e-06Z" fill="#F27405"/>
</svg>
